<svg viewBox="0 0 25 24" fill="none" xmlns="http://www.w3.org/2000/svg">
<path d="M9.68745 21C10.3926 21.6224 11.3188 22 12.3333 22C13.3477 22 14.274 21.6224 14.9791 21M18.3333 8C18.3333 6.4087 17.7011 4.88258 16.5759 3.75736C15.4507 2.63214 13.9246 2 12.3333 2C10.742 2 9.21585 2.63214 8.09063 3.75736C6.96541 4.88258 6.33327 6.4087 6.33327 8C6.33327 11.0902 5.55374 13.206 4.68294 14.6054C3.9484 15.7859 3.58113 16.3761 3.5946 16.5408C3.60951 16.7231 3.64813 16.7926 3.79505 16.9016C3.92773 17 4.52586 17 5.72212 17H18.9444C20.1407 17 20.7388 17 20.8715 16.9016C21.0184 16.7926 21.057 16.7231 21.0719 16.5408C21.0854 16.3761 20.7181 15.7859 19.9836 14.6054C19.1128 13.206 18.3333 11.0902 18.3333 8Z" stroke="#94A3B8" stroke-width="2" stroke-linecap="round" stroke-linejoin="round"/>
</svg>
