<svg viewBox="0 0 25 24" fill="none" xmlns="http://www.w3.org/2000/svg">
<path d="M5.66689 14H18.8026C19.8154 14 20.3218 14 20.725 13.8112C21.0801 13.6448 21.3785 13.3777 21.5831 13.0432C21.8153 12.6633 21.8712 12.16 21.983 11.1534L22.568 5.88835C22.6022 5.58088 22.6193 5.42715 22.5698 5.30816C22.5264 5.20366 22.4488 5.11697 22.3498 5.06228C22.237 5 22.0823 5 21.7729 5H5.16689M2.66675 2H3.91519C4.17981 2 4.31212 2 4.41564 2.05032C4.50677 2.09463 4.58228 2.16557 4.63219 2.25376C4.68887 2.35394 4.69712 2.48599 4.71363 2.7501L5.61987 17.2499C5.63637 17.514 5.64463 17.6461 5.70131 17.7462C5.75121 17.8344 5.82673 17.9054 5.91786 17.9497C6.02137 18 6.15369 18 6.41831 18H19.6667M8.16675 21.5H8.17675M17.1667 21.5H17.1767M8.66675 21.5C8.66675 21.7761 8.44289 22 8.16675 22C7.89061 22 7.66675 21.7761 7.66675 21.5C7.66675 21.2239 7.89061 21 8.16675 21C8.44289 21 8.66675 21.2239 8.66675 21.5ZM17.6667 21.5C17.6667 21.7761 17.4429 22 17.1667 22C16.8906 22 16.6667 21.7761 16.6667 21.5C16.6667 21.2239 16.8906 21 17.1667 21C17.4429 21 17.6667 21.2239 17.6667 21.5Z" stroke="#94A3B8" stroke-width="2" stroke-linecap="round" stroke-linejoin="round"/>
</svg>
